<svg id="Layer_1" data-name="Layer 1" xmlns="http://www.w3.org/2000/svg" viewBox="0 0 175.75 136.93"><title>carte_blanche_logo</title><path d="M99.38,140.64a486,486,0,0,0,60-3.76c34.1-3.76,28-43.51,27.28-52.44-.94-11-4.93-34.57-12.93-53.85-8.17-19.7-22.89-22.1-36.45-24.46C127.8,4,113.34,3.51,99.39,3.78S71.42,4,62,6.13C48.42,8.49,33.7,10.89,25.54,30.59c-8,19.28-12,42.8-12.94,53.85-.7,8.93-6.82,48.68,27.28,52.44a566.22,566.22,0,0,0,59.5,3.76Z" transform="translate(-11.74 -3.72)" fill="#231f20" fill-rule="evenodd"/><path d="M48.33,65C64.75,44,79.91,38.77,87.82,35.84c9.26-3.44,20.64-1.05,24,3.34a28.37,28.37,0,0,1,6.61-3.58,42.7,42.7,0,0,1,16.34-2.35c5.17-.47,13.05,3.06,14.7,4.23,4.58-2.35,8.7-2.11,11.76-2.11,1.17,0,1.64,1.29,0,1.29a15.57,15.57,0,0,0-4.82.23c-5.77,1.3-3.18,4.12-2.24,5.53,2.35,3.06,4.94,5.88,3.29,15.29-1.22,7-9.17,11.28-10.58,12.22s-1.88,2.59-.23,3.77c2.35,2.58,10.34,8.7,8.93,21.4S140,114.62,127.79,114.85,112.15,101.09,114,94.74c.58-1-.12-1.53-.83-.47C111,97.68,98.4,109.44,89,113.44c-8.58,2.48-14.08-.33-16.69-6.59-2.71,2.94-16.58,11.76-24.93,6.35-20.23-15.75-3.06-42.8-1.18-45.62.33-.44.62-.92,1-1.35a32.07,32.07,0,0,1-10.82-6.29c-14-16,.64-25,6.11-25.52,8-.7,17.52,3.41,18.46,4.24s.59,1.41-.24.7c-4.82-3.17-14-4.35-18.22-3.52-2.48.49-6.69,2.79-8.82,8.81C30.1,55.8,40.07,62.21,48.33,65Zm41.23-8.44a13.82,13.82,0,0,1,.25-5.12c.71-3.17,2.59-2.94,3.41-2.47.57.33,3.09,1.7-3.66,7.59Zm35.76,15.64c3.69.83,12,1.57,16.58.06,3.18,2.46,10.59,10.81,4.47,24.57-6.54,14.71-14.81,16.7-18.46,16.7s-11.76-2.24-10.7-9.76,7.06-18,12.58-19.09c8-1.76,9.88,4.59,8.12,9.52a29.87,29.87,0,0,1-5.18,8.71c-.7,1.06.12,2.46,1.06,1.52a21.59,21.59,0,0,0,6.35-10.34c2.38-7.84-1.88-12-6.94-12-.4,0-8.23-.19-14,4.86-.71.59-1.41.24-.82-.94a102,102,0,0,0,5-12.64,1.48,1.48,0,0,1,1.94-1.17Zm2.47-8.41c1.85-4.63,11.06-18.34,16.46-21.63s6.12-1.18,7.53,1.88c1.85,4-.24,10.81-1.41,13.64s-3.53,8.76-8.7,10.4c-4.23-1.17-9.64-1-12.7-.76-1.88.23-2.12-1.18-1.18-3.53ZM86.64,79.3A65.73,65.73,0,0,1,83.58,89c-1.61,4.4-6.5,10.91-10.11,14.66a30,30,0,0,1,3.06-14.42c1.46-2.56,5.59-7.79,10.11-9.92Zm24.1-37.77c.92,2.33.69,5.58-1.29,11.24a14.77,14.77,0,0,1-4.77,6.92,8.87,8.87,0,0,1-1.46-5.75c.21-3.54,2.57-7.95,7.52-12.41ZM88.4,78.62a6.51,6.51,0,0,1,6,1.19c5.88,4.7-.47,12.82-1.65,14.93-2.94,4.59-1,3.41,1.18.59,1.14-1.44,8.23-12.23,1.65-16.7a11.46,11.46,0,0,0-7-1.5c.21-3.81-1.41-4.76-2-5.43-4.94-5.06-15.75,1.53-20.46,7.41C61.85,84.37,60.77,89.33,60.77,93c0,2.24.94,3.17,1.06,1.18a43.3,43.3,0,0,1,6.7-14.23c6.08-8.68,14.11-9.41,17-6.94,1.09.92,1.39,2.56,1.23,4.55-3.65.94-7.94,3.69-11.93,10.5-1.58,3.38-5.1,10.65-3.21,17.26a12,12,0,0,1-1,.85c-2.59,1.88-14.58,10.58-21.17,5.17-4.25-4-8.5-20.42,8.34-43.08.71,0,1.31.09,2,.05,8.39-.49,20.76-2.47,28.58-8.31a7,7,0,0,0,4.34,3.84c3,1.05,7.42.48,11.22-2.1a6.1,6.1,0,0,0,2.07,1c7.88,2.15,14.46-7.88,15.29-9.17s-.24-1.76-.83-.82c-2.58,4.58-8,9-12.11,9a4.41,4.41,0,0,1-3-1.29,21.8,21.8,0,0,0,5.94-9.17c1.18-3.3,2.53-8.28,1.15-11.17,6.35-5,17.2-6,22.37-5.77,2.35,0,8.93,1.42,10.35,4.24-4.64,2.53-18.69,13.11-28.46,29.39-4.17,7-15,28-20.46,35.75s-12,11.52-19,7a8.13,8.13,0,0,1-3.46-5.39c2.91-2.71,7.19-6.88,12-18.48a36,36,0,0,0,2.58-8.36ZM88,57.92c-.28.24-.58.48-.9.73-6.47,5-18.82,8.21-27.92,8.19a13.43,13.43,0,0,1,1.41-2.08C66,56.77,86.41,33,102.63,36.31c3.56.91,6.25,1.87,7.63,4.06a22.84,22.84,0,0,0-7.86,12.4c-.38,1.76-1.05,5.72.83,8.18a13.49,13.49,0,0,1-9.77,1.22c-1-.25-2.42-1.53-3.27-3.66a18.5,18.5,0,0,0,2.39-2.63c4.11-5.52,2.7-8.7.64-9.11-1.52-.24-3.23.18-4.64,4.88A14.82,14.82,0,0,0,88,57.92Z" transform="translate(-11.74 -3.72)" fill="#fff" fill-rule="evenodd"/></svg>