<svg id="Layer_1" data-name="Layer 1" xmlns="http://www.w3.org/2000/svg" viewBox="0 0 117.5 50.97"><title>flyokart-plane-svg</title><path d="M-177.41-10.83c28.71,8.81,43.07,6.54,73-11.64C-133.11-2.32-149.09-.08-177.41-10.83Z" transform="translate(177.58 46.09)" fill="#004071" stroke="#004071"/><path d="M-165,1c25.82,5.31,38.15,2.06,62.67-16.61C-125.63,4.71-139.37,8.08-165,1Z" transform="translate(177.58 46.09)" fill="#004071" stroke="#004071"/><path d="M-81.08-40.08l-2.5-1,3-1.5,1,1.5Z" transform="translate(177.58 46.09)" fill="#003267"/><path d="M-71.58-28.08l-2,.5.5,2.5,1-.5,1-1.5Z" transform="translate(177.58 46.09)" fill="#003267"/><path d="M-60.87-42.11a3.07,3.07,0,0,0,.74-2.46A2.29,2.29,0,0,0-63.06-46a20.16,20.16,0,0,0-6.68,2.82l-20,12.91-.11.08-8.07,7.06a2.18,2.18,0,0,0-.8,2.77h0a2.17,2.17,0,0,0,2.82.43l9.78-4.47.13-.07,20-12.91A20.41,20.41,0,0,0-60.87-42.11ZM-86.54-25.48-96.3-21a.88.88,0,0,1-1.13-.16.89.89,0,0,1,.34-1.13l8-7,19.92-12.88a18.27,18.27,0,0,1,6.06-2.55,1.21,1.21,0,0,1,1.53.73A1.71,1.71,0,0,1-62-42.65a18.57,18.57,0,0,1-4.65,4.3L-86.54-25.48Z" transform="translate(177.58 46.09)" fill="#003267"/><path d="M-76.32-38.37h0l-15.78-6.2a.57.57,0,0,0-.5.09L-96.43-42a.56.56,0,0,0-.28.37.22.22,0,0,0,0,.17.23.23,0,0,0,.07.07h0l13.22,7.85h0a.58.58,0,0,0,.54-.07l6.39-4.13h0a.63.63,0,0,0,.29-.41Zm0,0a.19.19,0,0,1,.14.22ZM-83-34.44l.13.08.13-.08,4.88-3.15.41-.27-.46-.18L-92.4-43.71l-.12,0-.11.07-2.53,1.63-.34.22.35.21Z" transform="translate(177.58 46.09)" fill="#003267" stroke="#004071" stroke-width="0.5"/><path d="M-73.66-16.4l.84-16.93a.45.45,0,0,0-.32-.47.86.86,0,0,0-.7.12l-6.39,4.13a.77.77,0,0,0-.4.7l1.71,15.28a.54.54,0,0,0,.07.19.5.5,0,0,0,.29.2.8.8,0,0,0,.66-.13l3.84-2.47A.85.85,0,0,0-73.66-16.4Zm-3.94,1.53-1.57-14L-74.29-32l-.77,15.52Z" transform="translate(177.58 46.09)" fill="#003267"/><path d="M-79.46-42.34a2.06,2.06,0,0,0-2.85-.21l-1.91,1.24.62,1,1.92-1.24a.68.68,0,0,1,1,.07.69.69,0,0,1-.33.89l-.64.41.62,1,.64-.42A2,2,0,0,0-79.46-42.34Z" transform="translate(177.58 46.09)" fill="#003267"/><path d="M-70.65-27.74a2.15,2.15,0,0,1-1.24,2.63l-2,1.07-.5-1,2-1.07A.73.73,0,0,0-72-27a.65.65,0,0,0-.92-.16l-.66.35-.51-1,.67-.36A2,2,0,0,1-70.65-27.74Z" transform="translate(177.58 46.09)" fill="#003267"/><path d="M-96.86-23l-4.53-4.47,1.44-.93,6.61,2.22.78-1.2-7-2.34a.86.86,0,0,0-.7.12L-102.77-28a.84.84,0,0,0-.37.49.48.48,0,0,0,0,.41l.06.07,5,5Z" transform="translate(177.58 46.09)" fill="#003267"/><path d="M-90.48-15.75l.73-7.3-1.42.21-.69,6.94L-93.3-15l-2.22-6-1.36.65,2.46,6.61a.36.36,0,0,0,0,.09.49.49,0,0,0,.35.21.89.89,0,0,0,.6-.14l2.56-1.66A.81.81,0,0,0-90.48-15.75Z" transform="translate(177.58 46.09)" fill="#003267"/><path d="M-90.69-28.76l-7.21,6.57.32,2,2-.52,10.81-4.92,7.2-4.92L-64.78-39l2.68-2.58L-60.93-44l-1-1.17-5.69,1.48Z" transform="translate(177.58 46.09)" fill="#003267"/><path d="M-78.39-14.09l-1.75-14.59L-73.61-33l-1,16.71Z" transform="translate(177.58 46.09)" fill="#003267"/><path d="M-96-41.7l13.3,7.83L-77-38.19l-15.07-6Z" transform="translate(177.58 46.09)" fill="#003267"/><path d="M-93.85-14.31-96-19.86l-.11-.68,5.58-2.15-.71,7Z" transform="translate(177.58 46.09)" fill="#003267"/><path d="M-102.27-27.32-98-23l4.87-3.38-6.81-2.46Z" transform="translate(177.58 46.09)" fill="#003267"/></svg>