<svg id="Layer" xmlns="http://www.w3.org/2000/svg" viewBox="0 0 146.5 208.39"><title>switch</title><path d="M106.48,127.35a6.45,6.45,0,0,0-8,.16,4.29,4.29,0,0,0,.19,6.77l43.48,34.8H28.89c-3.13,0-5.67,2.17-5.67,4.78s2.55,4.79,5.67,4.79H142l-43.3,34.8a4.28,4.28,0,0,0-.19,6.76,6.49,6.49,0,0,0,8,.13l49.45-39.75a8.56,8.56,0,0,0-.1-13.61Z" transform="translate(-13.25 -13.78)" stroke="#000" stroke-miterlimit="10"/><path d="M17.17,55.26a8.9,8.9,0,0,0-3.42,6.85,8.81,8.81,0,0,0,3.32,6.76l49.45,39.79a6.42,6.42,0,0,0,8-.16,4.28,4.28,0,0,0-.19-6.76L31,66.89H144.11c3.13,0,5.67-2.17,5.67-4.78s-2.55-4.78-5.67-4.78H30.86L74.34,22.52a4.28,4.28,0,0,0,.19-6.76,6.45,6.45,0,0,0-8-.17Z" transform="translate(-13.25 -13.78)" stroke="#000" stroke-miterlimit="10"/></svg>