<svg width="83" height="17" viewBox="0 0 83 17" fill="none" xmlns="http://www.w3.org/2000/svg">
<path d="M12.3478 8.5C12.3478 10.9853 10.4791 13 8.17391 13C5.86872 13 4 10.9853 4 8.5C4 6.01472 5.86872 4 8.17391 4C10.4791 4 12.3478 6.01472 12.3478 8.5Z" fill="black"/>
<path d="M12.3478 8.5C12.3478 10.9853 10.4791 13 8.17391 13C5.86872 13 4 10.9853 4 8.5C4 6.01472 5.86872 4 8.17391 4C10.4791 4 12.3478 6.01472 12.3478 8.5Z" stroke="#C4C4C4"/>
<path d="M42.2087 8.5C42.2087 10.7932 40.4913 12.6 38.4348 12.6C36.3783 12.6 34.6609 10.7932 34.6609 8.5C34.6609 6.20676 36.3783 4.4 38.4348 4.4C40.4913 4.4 42.2087 6.20676 42.2087 8.5Z" fill="white" stroke="black" stroke-width="0.8"/>
<path d="M75.6 8.5C75.6 10.7932 73.8826 12.6 71.8261 12.6C69.7696 12.6 68.0522 10.7932 68.0522 8.5C68.0522 6.20676 69.7696 4.4 71.8261 4.4C73.8826 4.4 75.6 6.20676 75.6 8.5Z" fill="white" stroke="black" stroke-width="0.8"/>
<path d="M8.17391 8H34.2609" stroke="black" stroke-width="0.8"/>
<path d="M49.913 8H52" stroke="black" stroke-width="0.8"/>
<path d="M55.1304 8H57.2174" stroke="black" stroke-width="0.8"/>
<path d="M60.3478 8H62.4348" stroke="black" stroke-width="0.8"/>
<path d="M65.5652 8H67.6522" stroke="black" stroke-width="0.8"/>
<path d="M44.6957 8H46.7826" stroke="black" stroke-width="0.8"/>
</svg>
