<svg width="194" height="241" viewBox="0 0 194 241" fill="none" xmlns="http://www.w3.org/2000/svg">
<path d="M188.744 6.089C185.081 2.163 180.03 0 174.52 0H159.377C148.217 0 137.566 8.942 135.637 19.934L134.682 25.37C133.722 30.84 135.014 36.021 138.321 39.959C141.628 43.897 146.507 46.065 152.061 46.065H171.622C174.336 46.065 176.961 45.523 179.4 44.561L177.321 62.322C175.32 61.481 173.123 61.033 170.814 61.033H148.496C138.935 61.033 129.544 68.642 127.56 77.994L107.828 171.021L14.729 164.331C9.698 163.971 5.498 165.676 2.894 169.024C0.454997 172.16 -0.258002 176.367 0.884998 180.871L11.709 223.489C14.054 232.722 23.713 240.235 33.239 240.235H111.288H112.479H152.208C161.861 240.235 170.544 232.424 171.562 222.824L186.834 78.843C186.921 78.02 186.931 77.209 186.903 76.406L192.13 31.758C192.868 29.835 193.337 27.791 193.484 25.671L193.83 20.701C194.214 15.205 192.407 10.016 188.744 6.089Z" fill="#60BDE5"/>
</svg>
