<svg width="52" height="65" viewBox="0 0 52 65" fill="none" xmlns="http://www.w3.org/2000/svg">
<path d="M43.799 46.076C48.202 46.076 51.785 42.493 51.785 38.089C51.785 33.685 48.202 30.102 43.799 30.102H42.847C39.261 23.001 31.901 18.117 23.417 18.117H20.639L15.71 5.148C14.54 2.069 11.534 0 8.22899 0C7.26299 0 6.31398 0.175 5.40698 0.519C1.29098 2.083 -0.785015 6.705 0.778985 10.822L12.119 40.663C13.31 43.799 16.584 46.076 19.902 46.076H26.384V59.33H17.512C16.408 59.33 15.512 60.226 15.512 61.33V62.043C15.512 63.147 16.408 64.043 17.512 64.043H42.178C43.282 64.043 44.178 63.147 44.178 62.043V61.33C44.178 60.226 43.282 59.33 42.178 59.33H33.306V46.076H43.799ZM23.417 22.117C29.599 22.117 35.047 25.297 38.228 30.102H25.194L22.159 22.117H23.417Z" fill="#F21717"/>
</svg>
